<?xml version="1.0" encoding="UTF-8" standalone="no"?>
<!-- Created with Inkscape (http://www.inkscape.org/) -->

<svg
   width="512"
   height="63.999996"
   viewBox="0 0 135.46666 16.933332"
   version="1.1"
   id="svg1"
   xml:space="preserve"
   inkscape:export-filename="logo_full.svg"
   inkscape:export-xdpi="96"
   inkscape:export-ydpi="96"
   sodipodi:docname="Logo.svg"
   inkscape:version="1.3 (0e150ed6c4, 2023-07-21)"
   xmlns:inkscape="http://www.inkscape.org/namespaces/inkscape"
   xmlns:sodipodi="http://sodipodi.sourceforge.net/DTD/sodipodi-0.dtd"
   xmlns:xlink="http://www.w3.org/1999/xlink"
   xmlns="http://www.w3.org/2000/svg"
   xmlns:svg="http://www.w3.org/2000/svg"><sodipodi:namedview
     id="namedview1"
     pagecolor="#505050"
     bordercolor="#eeeeee"
     borderopacity="1"
     inkscape:showpageshadow="0"
     inkscape:pageopacity="0"
     inkscape:pagecheckerboard="0"
     inkscape:deskcolor="#505050"
     inkscape:document-units="px"
     inkscape:zoom="1.5382846"
     inkscape:cx="369.24247"
     inkscape:cy="121.23894"
     inkscape:window-width="2560"
     inkscape:window-height="1417"
     inkscape:window-x="1912"
     inkscape:window-y="-8"
     inkscape:window-maximized="1"
     inkscape:current-layer="layer1"
     showgrid="false" /><defs
     id="defs1"><linearGradient
       id="linearGradient6"
       inkscape:collect="always"><stop
         style="stop-color:#ffffff;stop-opacity:0.5;"
         offset="0"
         id="stop5" /><stop
         style="stop-color:#ffffff;stop-opacity:0;"
         offset="1"
         id="stop6" /></linearGradient><linearGradient
       id="linearGradient4"
       inkscape:collect="always"><stop
         style="stop-color:#ffffff;stop-opacity:0.75;"
         offset="0"
         id="stop3" /><stop
         style="stop-color:#ffffff;stop-opacity:0;"
         offset="1"
         id="stop4" /></linearGradient><linearGradient
       inkscape:collect="always"
       xlink:href="#linearGradient6"
       id="linearGradient2"
       x1="8.4666662"
       y1="4.6216216"
       x2="8.4667463"
       y2="16.933334"
       gradientUnits="userSpaceOnUse" /><linearGradient
       inkscape:collect="always"
       xlink:href="#linearGradient4"
       id="linearGradient5"
       gradientUnits="userSpaceOnUse"
       x1="8.4666662"
       y1="4.6216216"
       x2="8.4667463"
       y2="16.933334" /></defs><g
     inkscape:label="Layer 1"
     inkscape:groupmode="layer"
     id="layer1"><path
       id="rect1"
       style="fill:#14b2fd;fill-opacity:1;stroke-width:0.296628"
       d="m 8.4666662,0 h 8.4666668 l -1e-6,8.4666672 c 0,4.6905338 -3.776133,8.4666668 -8.4666658,8.4666668 -2.5519527,0 -4.8788284,-10e-7 -8.4666662,-10e-7 C 0,13.284684 0,10.605248 0,8.4666672 0,3.7761336 3.7761331,0 8.4666662,0 Z"
       sodipodi:nodetypes="scsscss" /><path
       id="rect1-6"
       style="fill:url(#linearGradient2);fill-opacity:0.5;stroke-width:0.296628"
       d="m 8.466666,4.2333336 h 8.466666 V 8.466667 c -1e-6,4.690534 -3.775974,8.466667 -8.4665067,8.466666 L 1.5923062e-4,16.933332 -3.4690002e-8,12.700001 C -1.7650076e-4,8.0094676 3.776133,4.2333336 8.466666,4.2333336 Z"
       sodipodi:nodetypes="scsscss" /><path
       id="rect1-6-4"
       style="fill:url(#linearGradient5);fill-opacity:0.5;stroke-width:0.296628"
       d="m 8.4666661,8.3625987 h 8.4666669 l -1e-6,0.1040685 c -4.5e-5,4.6905338 -3.775974,8.4666668 -8.4665069,8.4666658 L 1.5908266e-4,16.933332 3.8265591e-7,16.829266 C -0.00715264,12.138738 3.7761334,8.3625987 8.4666661,8.3625987 Z"
       sodipodi:nodetypes="scsscss" /><path
       d="m 37.930565,0.34994673 h -8.963387 c -1.791172,0 -3.243677,0.35371889 -4.357515,1.06115667 -2.289919,1.5450053 -2.799652,4.6857497 -2.799652,5.4638277 0,1.2643569 0.579497,2.1448911 1.738491,2.6416027 1.507177,0.5317622 3.141541,0.4611664 4.71876,0.428978 1.303415,0.067155 2.876803,-0.240953 3.973693,0.5870232 0.07559,0.151179 0.02734,1.872686 -1.196619,2.844803 -0.406401,0.195674 -1.031053,0.293511 -1.873957,0.293511 H 20.63597 l -0.699912,2.912536 c 7.857075,0 12.335005,-0.346193 13.433791,-1.038578 1.264357,-0.827853 2.039529,-1.806224 2.325514,-2.935114 0.826407,-3.26214 0.409652,-3.9356836 -0.699912,-4.921961 -0.925435,-0.588357 -2.130129,-0.5237062 -3.18347,-0.5418672 -3.597396,0 -5.561665,-0.1429928 -5.892806,-0.4289783 C 25.501428,6.2993042 25.587146,5.7788239 25.648238,5.2493295 26.041404,3.4801077 27.912412,3.262483 28.809134,3.262483 h 8.398942 z m 17.226873,0 H 51.070856 L 42.739648,8.1618658 44.681339,0.34994673 H 41.272091 L 37.230665,16.583385 h 3.409248 l 2.009424,-8.0602744 4.154315,8.0602744 h 4.357516 l -4.51556,-8.2860524 z m 14.517546,0 H 65.746447 L 60.147153,6.5814197 57.686172,0.34994673 h -3.79307 l 3.860804,9.09885367 -1.783647,7.1345846 h 3.454404 L 61.208309,9.4488004 Z M 77.825559,13.896627 c -3.717811,0 -5.840125,-0.158045 -6.36694,-0.474134 -0.511763,-0.361245 -0.767645,-0.873008 -0.767645,-1.53529 0.689916,-3.8876984 1.781102,-7.7048844 2.731919,-11.53725627 h -3.38667 C 68.910639,4.9148058 66.904262,13.479528 67.846171,14.935206 c 0.737541,1.098786 2.212624,1.648179 4.425249,1.648179 h 4.876805 z M 86.540572,0.34994673 H 82.995857 L 78.954431,16.583385 h 3.567292 z m 17.362328,0 c -5.539087,0 -8.66235,0.0451556 -9.369787,0.1354668 -0.72249,0.0903112 -1.332091,0.24835581 -1.828802,0.47413382 C 91.018502,1.7121407 89.693937,2.7958752 88.730618,4.2107507 87.902765,5.3847963 87.323268,6.664205 86.992127,8.0489768 86.630882,9.4638523 86.45026,10.660476 86.45026,11.638847 c -0.103215,1.631234 0.55651,2.78498 1.670756,3.860804 0.738018,0.667153 2.328032,1.083739 3.115737,1.083739 h 8.62472 L 102.25472,6.9652423 H 94.239601 L 93.539689,9.832623 h 4.538138 l -0.948267,3.793071 c -3.6275,0 -5.68208,-0.248356 -6.16374,-0.745068 -0.879462,-0.87946 -0.708062,-2.577275 -0.112889,-4.8768038 0.316089,-1.3095125 0.827853,-2.385721 1.535291,-3.2286255 0.933215,-1.0686826 2.099735,-1.6030239 3.499559,-1.6030239 h 7.315209 z m 15.8722,0 h -3.38667 l -1.6256,6.57013997 h -6.25405 l 1.6256,-6.57013997 h -3.40924 L 102.68371,16.583385 h 3.40925 l 1.69333,-6.7959176 h 6.25405 l -1.69333,6.7959176 h 3.38667 z m 15.69156,0.0451556 H 121.491 l -0.67733,2.82222507 h 5.19289 l -3.34151,13.3660576 h 3.52214 L 129.5287,3.2173274 h 5.23805 z"
       id="text6"
       style="font-style:italic;font-size:22.5778px;font-family:Newtown;-inkscape-font-specification:'Newtown, Italic';fill:#ffffff;stroke-width:0.264583"
       aria-label="SKYLIGHT"
       sodipodi:nodetypes="cscsccccscccsccccsccccccccccccccccccccccccccccccsccccccccccccccscccccccccscccccccccccccccccccccccc" /></g></svg>
