<?xml version="1.0" encoding="UTF-8" standalone="no"?>
<!-- Created with Inkscape (http://www.inkscape.org/) -->

<svg
   width="1540"
   height="256"
   viewBox="0 0 1540 256"
   version="1.1"
   id="svg1"
   xml:space="preserve"
   inkscape:version="1.3 (0e150ed6c4, 2023-07-21)"
   sodipodi:docname="NewLogo.svg"
   inkscape:export-filename="..\..\Skylight\Skylight-WebUI\src\assets\images\logo_text_256.svg"
   inkscape:export-xdpi="96"
   inkscape:export-ydpi="96"
   xmlns:inkscape="http://www.inkscape.org/namespaces/inkscape"
   xmlns:sodipodi="http://sodipodi.sourceforge.net/DTD/sodipodi-0.dtd"
   xmlns:xlink="http://www.w3.org/1999/xlink"
   xmlns="http://www.w3.org/2000/svg"
   xmlns:svg="http://www.w3.org/2000/svg"><sodipodi:namedview
     id="namedview1"
     pagecolor="#505050"
     bordercolor="#eeeeee"
     borderopacity="1"
     inkscape:showpageshadow="0"
     inkscape:pageopacity="0"
     inkscape:pagecheckerboard="0"
     inkscape:deskcolor="#505050"
     inkscape:document-units="px"
     inkscape:zoom="0.70710678"
     inkscape:cx="977.22157"
     inkscape:cy="109.60155"
     inkscape:window-width="2560"
     inkscape:window-height="1417"
     inkscape:window-x="1912"
     inkscape:window-y="-8"
     inkscape:window-maximized="1"
     inkscape:current-layer="layer1"
     showgrid="false" /><defs
     id="defs1"><inkscape:path-effect
       effect="fillet_chamfer"
       id="path-effect8"
       is_visible="true"
       lpeversion="1"
       nodesatellites_param="F,0,0,1,0,0,0,1 @ F,0,0,1,0,64.53245,0,1 @ F,0,0,1,0,0,0,1 @ F,0,0,1,0,0,0,1"
       radius="0"
       unit="px"
       method="auto"
       mode="F"
       chamfer_steps="1"
       flexible="false"
       use_knot_distance="true"
       apply_no_radius="true"
       apply_with_radius="true"
       only_selected="false"
       hide_knots="false" /><linearGradient
       id="linearGradient1"
       inkscape:collect="always"><stop
         style="stop-color:#00a9ff;stop-opacity:1;"
         offset="0"
         id="stop1" /><stop
         style="stop-color:#89cff3;stop-opacity:0.25098041;"
         offset="1"
         id="stop2" /></linearGradient><linearGradient
       inkscape:collect="always"
       xlink:href="#linearGradient1"
       id="linearGradient2"
       x1="128"
       y1="0.33915737"
       x2="128"
       y2="256"
       gradientUnits="userSpaceOnUse"
       gradientTransform="matrix(-1,0,0,1.0013266,256,-0.3396073)" /><inkscape:path-effect
       effect="fillet_chamfer"
       id="path-effect8-2"
       is_visible="true"
       lpeversion="1"
       nodesatellites_param="F,0,0,1,0,0,0,1 @ F,0,0,1,0,0,0,1 @ F,0,0,1,0,0,0,1 @ F,0,0,1,0,0,0,1"
       radius="0"
       unit="px"
       method="auto"
       mode="F"
       chamfer_steps="1"
       flexible="false"
       use_knot_distance="true"
       apply_no_radius="true"
       apply_with_radius="true"
       only_selected="false"
       hide_knots="false" /><inkscape:path-effect
       effect="fillet_chamfer"
       id="path-effect8-2-6"
       is_visible="true"
       lpeversion="1"
       nodesatellites_param="F,0,0,1,0,0,0,1 @ F,0,0,1,0,0,0,1 @ F,0,0,1,0,0,0,1 @ F,0,0,1,0,0,0,1"
       radius="0"
       unit="px"
       method="auto"
       mode="F"
       chamfer_steps="1"
       flexible="false"
       use_knot_distance="true"
       apply_no_radius="true"
       apply_with_radius="true"
       only_selected="false"
       hide_knots="false" /></defs><g
     inkscape:label="Layer 1"
     inkscape:groupmode="layer"
     id="layer1"><path
       id="rect1-8"
       style="fill:url(#linearGradient2);stroke-width:1.00066;stroke-dasharray:none"
       inkscape:label="rect1"
       d="M 256,0 H 96.528532 A 73.100102,73.100102 138.56208 0 0 23.992781,64.034243 L -1.25e-6,256 H 224 Z"
       sodipodi:nodetypes="ccccc"
       inkscape:original-d="M 256,0 H 31.996082 L -1.25e-6,256 H 224 Z"
       inkscape:path-effect="#path-effect8" /><path
       id="rect1-8-8"
       style="fill:#f9f9f9;fill-opacity:0.25;stroke-width:1.00066;stroke-dasharray:none"
       inkscape:label="rect1"
       d="m 256,0 -240.046121,128.35333 -7.9990207,64 L 247.99706,64 Z"
       sodipodi:nodetypes="ccccc"
       inkscape:original-d="m 256,0 -240.046121,128.35333 -7.9990207,64 L 247.99706,64 Z"
       inkscape:path-effect="#path-effect8-2" /><path
       id="rect1-8-8-8"
       style="fill:#f9f9f9;fill-opacity:0.25;stroke-width:1.00066;stroke-dasharray:none"
       inkscape:label="rect1"
       d="M 251.98086,32.176666 11.934731,160.53 7.9548583,192.35333 247.99706,64 Z"
       sodipodi:nodetypes="ccccc"
       inkscape:original-d="M 251.98086,32.176666 11.934731,160.53 7.9548583,192.35333 247.99706,64 Z"
       inkscape:path-effect="#path-effect8-2-6"
       transform="translate(-8.00294,64)" /><path
       d="m 527.96885,-356.42887 q -18.90107,0 -33.74485,-3.26563 -14.74481,-3.26563 -25.53129,-8.11459 l 7.6198,-35.32819 h 4.15626 q 10.19273,9.3021 23.94796,14.44794 13.75523,5.04689 29.58859,5.04689 16.22919,0 23.849,-4.35418 7.6198,-4.45313 7.6198,-12.66668 0,-3.06772 -1.28646,-5.24481 -1.1875,-2.27604 -4.75001,-4.45313 -3.5625,-2.17708 -9.79689,-4.25521 -6.13542,-2.17709 -15.93232,-4.94793 -10.78647,-2.96875 -19.39586,-6.4323 -8.51043,-3.46355 -14.5469,-8.21356 -6.03647,-4.84896 -9.20314,-11.18231 -3.06772,-6.33334 -3.06772,-15.14065 0,-22.1667 19.49483,-35.32818 19.59378,-13.26044 53.53655,-13.26044 16.32815,0 30.77609,2.67188 14.5469,2.67188 24.64067,7.22397 l -7.22397,33.94276 h -4.0573 q -7.71876,-7.12501 -20.38545,-11.87502 -12.56773,-4.84896 -27.51047,-4.84896 -14.64585,0 -22.66149,4.25521 -8.01564,4.25522 -8.01564,11.77607 0,3.46354 1.1875,5.73959 1.1875,2.27604 4.84897,4.45313 3.16667,1.97917 9.99481,4.35417 6.82813,2.27605 16.03127,4.75001 24.73963,6.63022 35.32819,15.53649 10.58856,8.90626 10.58856,24.14587 0,12.76565 -5.7396,22.46358 -5.73959,9.69793 -15.83336,15.7344 -10.58856,6.4323 -24.04691,9.40106 -13.45836,2.96875 -30.47922,2.96875 z m 229.08893,-2.67187 h -41.85945 l -33.15109,-59.67198 -15.33857,13.3594 -10.68752,46.31258 h -38.19798 l 33.94277,-147.34921 h 38.19798 l -14.94274,64.91677 66.50012,-64.91677 h 45.12507 l -74.41679,68.57824 z m 180.89616,-147.34921 -75.1095,90.34911 -13.16148,57.0001 h -38.19798 l 12.76564,-55.21885 -33.8438,-92.13036 h 40.67194 l 18.90107,57.6928 44.03654,-57.6928 z m 91.83346,147.34921 H 923.40703 l 34.04173,-147.34921 h 38.19798 l -27.41151,118.84916 h 68.18237 z m 102.521,0 h -86.2918 l 6.0364,-26.12505 h 24.047 l 21.9688,-95.09912 h -24.047 l 6.0365,-26.12504 h 86.2918 l -6.0365,26.12504 h -24.0469 l -21.9688,95.09912 h 24.047 z m 103.6096,3.06771 q -31.3699,0 -49.1824,-14.84378 -17.7136,-14.84377 -17.7136,-42.15632 0,-42.55215 27.4115,-69.36991 27.4115,-26.91671 69.5678,-26.91671 15.9324,0 29.4897,2.77084 13.6562,2.67188 28.3021,10.29168 l -8.4115,34.53652 h -4.2552 q -11.875,-11.28127 -22.4636,-15.63544 -10.5885,-4.45313 -23.3542,-4.45313 -12.9635,0 -23.4531,5.34375 -10.4896,5.2448 -17.9115,14.25003 -7.0261,8.51043 -10.9844,20.18753 -3.9584,11.67711 -3.9584,24.44275 0,17.71357 9.698,26.12505 9.6979,8.31251 31.5677,8.31251 2.1771,0 4.75,-0.099 2.573,-0.099 4.7501,-0.29687 l 6.7291,-28.89589 h -29.3906 l 6.4323,-27.80733 h 67.9845 l -16.823,72.73449 q -13.1615,4.55209 -28.1042,8.01564 -14.8438,3.46355 -30.6771,3.46355 z m 257.9848,-150.41692 -34.0418,147.34921 h -38.1979 l 15.0416,-65.1147 h -55.9115 l -15.0417,65.1147 h -38.198 l 34.0417,-147.34921 h 38.198 l -12.5677,54.22926 h 55.9115 l 12.5678,-54.22926 z m 146.3596,28.50005 h -45.9167 l -27.4115,118.84916 h -38.198 l 27.4115,-118.84916 h -45.9168 l 6.5313,-28.50005 h 130.0315 z"
       id="text1"
       style="font-style:italic;font-weight:bold;font-size:202.667px;font-family:Sans;-inkscape-font-specification:'Sans, Bold Italic';white-space:pre;fill:#f9f9f9"
       transform="translate(-148.69271,560.67627)"
       aria-label="SKYLIGHT" /></g></svg>
